<svg width="44" height="44" viewBox="0 0 44 44" fill="none" xmlns="http://www.w3.org/2000/svg">
<path d="M26.2111 21.9999C26.2111 22.8328 25.9641 23.647 25.5014 24.3395C25.0387 25.032 24.381 25.5718 23.6115 25.8905C22.842 26.2092 21.9953 26.2926 21.1784 26.1301C20.3615 25.9677 19.6112 25.5666 19.0222 24.9777C18.4333 24.3887 18.0322 23.6384 17.8697 22.8215C17.7072 22.0046 17.7906 21.1579 18.1094 20.3884C18.4281 19.6189 18.9679 18.9612 19.6604 18.4985C20.3529 18.0358 21.1671 17.7888 21.9999 17.7888C23.1168 17.7888 24.1879 18.2325 24.9777 19.0222C25.7674 19.812 26.2111 20.8831 26.2111 21.9999Z" fill="white"/>
<path d="M31.8487 14.5499C31.6385 14.0051 31.3167 13.5104 30.9038 13.0976C30.491 12.6847 29.9963 12.3629 29.4516 12.1527C28.7005 11.8744 27.9071 11.7274 27.1062 11.7179C25.7742 11.6569 25.3739 11.6443 22.0013 11.6443C18.6287 11.6443 18.2284 11.6569 16.8964 11.7179C16.0955 11.7275 15.3021 11.8745 14.551 12.1527C14.0061 12.3628 13.5112 12.6846 13.0982 13.0975C12.6851 13.5103 12.3631 14.0051 12.1527 14.5499C11.8745 15.301 11.7274 16.0943 11.7179 16.8953C11.6569 18.2273 11.6443 18.6264 11.6443 22.0001C11.6443 25.3739 11.6569 25.773 11.7179 27.105C11.7274 27.9059 11.8745 28.6993 12.1527 29.4504C12.3629 29.9951 12.6847 30.4898 13.0976 30.9027C13.5104 31.3155 14.0051 31.6374 14.5499 31.8476C15.3009 32.126 16.0943 32.2731 16.8953 32.2824C18.2273 32.3433 18.6264 32.356 22.0001 32.356C25.3739 32.356 25.773 32.3433 27.105 32.2824C27.906 32.2731 28.6993 32.126 29.4504 31.8476C29.9951 31.6374 30.4898 31.3155 30.9027 30.9027C31.3155 30.4898 31.6374 29.9951 31.8476 29.4504C32.1257 28.6993 32.2728 27.9059 32.2824 27.105C32.3433 25.773 32.356 25.3727 32.356 22.0001C32.356 18.6276 32.3433 18.2273 32.2824 16.8953C32.2734 16.0944 32.1267 15.301 31.8487 14.5499ZM22.0013 28.4876C20.7182 28.4876 19.4639 28.1072 18.397 27.3943C17.3302 26.6814 16.4986 25.6682 16.0076 24.4828C15.5166 23.2974 15.3881 21.9929 15.6384 20.7345C15.8888 19.476 16.5066 18.3201 17.4139 17.4128C18.3212 16.5055 19.4772 15.8876 20.7356 15.6373C21.9941 15.387 23.2985 15.5155 24.4839 16.0065C25.6694 16.4975 26.6826 17.329 27.3954 18.3959C28.1083 19.4627 28.4888 20.717 28.4888 22.0001C28.4888 23.7207 27.8053 25.3709 26.5886 26.5875C25.372 27.8041 23.7219 28.4876 22.0013 28.4876ZM28.7453 16.7733C28.4455 16.7733 28.1523 16.6844 27.903 16.5178C27.6537 16.3512 27.4594 16.1145 27.3446 15.8375C27.2299 15.5604 27.1999 15.2556 27.2584 14.9615C27.3169 14.6674 27.4613 14.3973 27.6733 14.1853C27.8853 13.9732 28.1554 13.8289 28.4495 13.7704C28.7436 13.7119 29.0484 13.7419 29.3255 13.8566C29.6025 13.9714 29.8393 14.1657 30.0058 14.415C30.1724 14.6643 30.2613 14.9574 30.2613 15.2573C30.2613 15.4565 30.2221 15.6537 30.1458 15.8377C30.0696 16.0217 29.9578 16.1889 29.8169 16.3297C29.676 16.4705 29.5087 16.5821 29.3247 16.6583C29.1406 16.7344 28.9433 16.7735 28.7441 16.7733H28.7453Z" fill="white"/>
<path d="M22 0C17.6488 0 13.3953 1.29028 9.77747 3.70767C6.15958 6.12506 3.33979 9.56099 1.67466 13.581C0.00953221 17.6009 -0.426141 22.0244 0.422734 26.292C1.27161 30.5596 3.36691 34.4796 6.44366 37.5563C9.52042 40.6331 13.4404 42.7284 17.708 43.5773C21.9756 44.4261 26.3991 43.9905 30.4191 42.3253C34.439 40.6602 37.875 37.8404 40.2923 34.2225C42.7097 30.6047 44 26.3512 44 22C43.9994 16.1654 41.6814 10.57 37.5557 6.44432C33.43 2.31866 27.8346 0.000610024 22 0V0ZM34.5563 27.2084C34.5356 28.2564 34.3372 29.2933 33.9697 30.275C33.6451 31.1142 33.1488 31.8763 32.5126 32.5126C31.8763 33.1488 31.1142 33.6451 30.275 33.9697C29.2933 34.3371 28.2564 34.5355 27.2084 34.5563C25.8615 34.6173 25.4313 34.6322 22 34.6322C18.5688 34.6322 18.1397 34.623 16.7939 34.5563C15.7459 34.5355 14.709 34.3371 13.7273 33.9697C12.8877 33.6454 12.1251 33.1492 11.4885 32.5129C10.8518 31.8767 10.3552 31.1144 10.0303 30.275C9.66275 29.2933 9.46439 28.2564 9.4437 27.2084C9.38159 25.8614 9.36663 25.4301 9.36663 22C9.36663 18.5699 9.38159 18.1385 9.44255 16.7916C9.46331 15.7436 9.66166 14.7067 10.0292 13.725C10.3541 12.8858 10.8506 12.1237 11.487 11.4875C12.1234 10.8513 12.8857 10.3549 13.725 10.0303C14.7074 9.66268 15.7451 9.46432 16.7939 9.44369C18.1409 9.38272 18.5711 9.36777 22.0023 9.36777C25.4336 9.36777 25.8638 9.38272 27.2107 9.44484C28.2587 9.46577 29.2956 9.66412 30.2773 10.0315C31.1165 10.3561 31.8786 10.8524 32.5148 11.4887C33.151 12.1249 33.6474 12.887 33.972 13.7261C34.3399 14.7077 34.5387 15.7446 34.5598 16.7927C34.6207 18.1397 34.6357 18.5699 34.6357 22.0011C34.6357 25.4324 34.623 25.8614 34.5563 27.2084Z" fill="white"/>
</svg>
