<svg width="42" height="45" viewBox="0 0 42 45" fill="none" xmlns="http://www.w3.org/2000/svg">
<path d="M29.289 28.0402H12.0564C5.39786 28.0402 0 33.4128 0 40.0405V44.8993H41.3454V40.0405C41.3454 33.4128 35.9477 28.0402 29.289 28.0402Z" fill="white"/>
<path d="M20.6727 25.6985C26.5193 25.6985 31.2589 20.9809 31.2589 15.1615C31.2589 9.34209 26.5193 4.62451 20.6727 4.62451C14.826 4.62451 10.0864 9.34209 10.0864 15.1615C10.0864 20.9809 14.826 25.6985 20.6727 25.6985Z" fill="white"/>
<path d="M7.14862 19.9851C7.11836 21.3465 7.37877 23.4023 8.95298 24.834C8.92215 24.9617 8.90148 25.0931 8.90148 25.2302C8.90148 26.1678 9.66514 26.9279 10.6072 26.9279C11.5492 26.9279 12.3128 26.1678 12.3128 25.2302C12.3128 24.2925 11.5492 23.5324 10.6072 23.5324C10.1526 23.5324 9.74201 23.7122 9.4363 24.0008C8.19863 22.7658 8.02937 21.0457 8.0773 19.9207C8.83166 19.6766 9.38067 18.9794 9.38067 18.147V16.2737C9.38067 15.493 8.90026 14.825 8.21808 14.5436C8.88334 7.62005 14.2042 2.22447 20.6727 2.22447C27.141 2.22447 32.462 7.61995 33.1274 14.5436C32.4451 14.8249 31.9646 15.4929 31.9646 16.2737V18.147C31.9646 19.1816 32.8072 20.0203 33.8466 20.0203C34.8861 20.0203 35.7286 19.1816 35.7286 18.147V16.2737C35.7286 15.3399 35.0401 14.572 34.1419 14.4301C34.1655 14.1092 34.1995 13.791 34.1995 13.4639C34.1995 6.028 28.1434 0 20.6727 0C13.202 0 7.14589 6.028 7.14589 13.464C7.14589 13.7911 7.17982 14.1093 7.20341 14.4302C6.30527 14.572 5.6167 15.3399 5.6167 16.2738V18.1471C5.6167 19.0622 6.27689 19.8214 7.14862 19.9851Z" fill="white"/>
</svg>
